<mxfile host="app.diagrams.net" modified="2024-05-03T14:53:11.746Z" agent="Mozilla/5.0 (Windows NT 10.0; Win64; x64) AppleWebKit/537.36 (KHTML, like Gecko) Chrome/124.0.0.0 Safari/537.36" etag="eYokEJHPoccvdIbCftRO" version="24.3.1" type="github">
  <diagram name="Página-1" id="hrwiLjcO8dKaTjDp7RrG">
    <mxGraphModel dx="1050" dy="530" grid="1" gridSize="10" guides="1" tooltips="1" connect="1" arrows="1" fold="1" page="1" pageScale="1" pageWidth="827" pageHeight="1169" math="0" shadow="0">
      <root>
        <mxCell id="0" />
        <mxCell id="1" parent="0" />
        <mxCell id="g9yhixUxPmsOxpV-LiuI-1" value="&lt;b&gt;Cenárii1: Atribuir produto pré-pago ao contrato vigente&lt;/b&gt;.&lt;div&gt;&lt;br&gt;&lt;/div&gt;&lt;div&gt;- Venda Base&lt;/div&gt;&lt;div&gt;- Sem necessidade de criar novo HP&lt;/div&gt;&lt;div&gt;- Impactos em billing indiferente&lt;/div&gt;&lt;div&gt;- Necessidade de identificar modalidade pré-pago em nível de produto&lt;/div&gt;&lt;div&gt;&lt;br&gt;&lt;div&gt;&lt;div&gt;&lt;br&gt;&lt;/div&gt;&lt;div&gt;&lt;br&gt;&lt;/div&gt;&lt;div&gt;&lt;div&gt;&lt;div&gt;&lt;br&gt;&lt;/div&gt;&lt;/div&gt;&lt;/div&gt;&lt;/div&gt;&lt;/div&gt;" style="text;html=1;align=left;verticalAlign=top;whiteSpace=wrap;rounded=0;horizontal=1;" vertex="1" parent="1">
          <mxGeometry x="30" y="20" width="380" height="100" as="geometry" />
        </mxCell>
        <mxCell id="g9yhixUxPmsOxpV-LiuI-2" value="&lt;div&gt;&lt;b&gt;Cenário 2: Atribuir produto pré-pago num novo contrato&lt;/b&gt;&lt;br&gt;&lt;div&gt;&lt;br&gt;&lt;/div&gt;&lt;/div&gt;&lt;div&gt;- Venda Prospect&lt;/div&gt;&lt;div&gt;- Necessidade de criar novo HP para o mesmo endereço/cliente&lt;/div&gt;&lt;div&gt;- Impacto em billing indiferente&lt;/div&gt;&lt;div&gt;- Novo contrato faz uma venda pré-pago (AS-IS).&lt;/div&gt;" style="text;html=1;align=left;verticalAlign=top;whiteSpace=wrap;rounded=0;" vertex="1" parent="1">
          <mxGeometry x="450" y="20" width="360" height="100" as="geometry" />
        </mxCell>
      </root>
    </mxGraphModel>
  </diagram>
</mxfile>
